<?xml version="1.0" encoding="UTF-8"?>
<svg version="1.1" xmlns="http://www.w3.org/2000/svg" width="356" height="363">
<path d="M0 0 C0.66 0 1.32 0 2 0 C3.71159887 2.27906444 5.30392625 4.56361579 6.875 6.9375 C7.87401285 8.41863506 8.87404614 9.89908224 9.875 11.37890625 C10.65037109 12.52963623 10.65037109 12.52963623 11.44140625 13.70361328 C13.87633979 17.29117357 16.3710132 20.83542395 18.875 24.375 C19.37193359 25.07834473 19.86886719 25.78168945 20.38085938 26.50634766 C24.01175784 31.63307401 27.68770496 36.72624934 31.375 41.8125 C37.79559044 50.66984958 44.06428792 59.62980202 50.32421875 68.60107422 C57.45827863 78.81367217 64.67939179 88.95912591 71.99316406 99.04370117 C76.76662487 105.64176394 81.44021396 112.30740518 86.08984375 118.99316406 C89.86691093 124.41625995 93.7269019 129.75379432 97.7421875 135.00390625 C99 137 99 137 99 140 C98.21625 140.763125 97.4325 141.52625 96.625 142.3125 C92.83101387 146.19681914 92.14731597 149.29113473 91.6875 154.625 C91.99119438 163.96806828 94.62260765 173.02338958 101 180 C106.02679322 184.03886854 110.7116664 186.12249127 117.1875 186.1328125 C117.96867188 186.13410156 118.74984375 186.13539063 119.5546875 186.13671875 C120.36164063 186.13285156 121.16859375 186.12898437 122 186.125 C122.80695313 186.12886719 123.61390625 186.13273438 124.4453125 186.13671875 C125.22648438 186.13542969 126.00765625 186.13414062 126.8125 186.1328125 C127.52019531 186.13168457 128.22789062 186.13055664 128.95703125 186.12939453 C131.13790973 185.99126528 132.95035528 185.77306285 135 185 C136.20776206 181.37671381 136.40040892 178.80388473 136 175 C133.5240528 172.24108741 131.97577346 171.15884684 128.3125 170.5625 C127.1678125 170.7790625 127.1678125 170.7790625 126 171 C123.8480563 174.22791555 123.79913557 175.28400809 124 179 C119.57258356 177.64717831 117.63690779 175.76701112 115 172 C112.89368239 167.78736478 113.48556763 162.57605536 114 158 C115.40688612 154.60112092 117.58543732 152.74575271 120.8671875 151.015625 C124.26116764 149.61577327 127.20262598 148.97712287 130.875 148.5625 C131.90625 148.376875 132.9375 148.19125 134 148 C135.18330183 146.13355094 135.18330183 146.13355094 136 144 C142.72246672 138.95814996 151.15950112 139.75854424 159.1875 139.6875 C160.26064453 139.65849609 161.33378906 139.62949219 162.43945312 139.59960938 C173.35753336 139.51374426 182.9767017 142.33623629 191 150 C195.67337888 155.61077174 196.61902441 160.89942594 196 168 C195.0625 171.375 195.0625 171.375 193 174 C190.07880808 175.36736643 187.13227416 176.25140618 184 177 C183.6647315 181.03842627 183.6647315 181.03842627 185 184.75 C189.82658729 187.76661706 195.49765478 188.62210044 201.0546875 187.65234375 C206.59003432 185.79611299 209.93738356 181.5970093 212.6875 176.625 C214.72098608 172.1661933 216.11837548 167.59982042 217.375 162.875 C217.55506592 162.21838379 217.73513184 161.56176758 217.9206543 160.88525391 C219.26529404 155.38164414 219.64348862 149.91012634 216.7734375 144.828125 C216.08121094 144.04695313 216.08121094 144.04695313 215.375 143.25 C213.9609375 141.640625 213.9609375 141.640625 213 140 C213.47584984 136.97425405 214.52150437 134.95176447 216.30078125 132.48828125 C216.77700928 131.8219165 217.2532373 131.15555176 217.74389648 130.46899414 C218.26153564 129.75735107 218.7791748 129.04570801 219.3125 128.3125 C220.41425749 126.77618148 221.51581454 125.23971921 222.6171875 123.703125 C223.18147461 122.92001953 223.74576172 122.13691406 224.32714844 121.33007812 C226.39525778 118.44945414 228.43523861 115.54973472 230.47314453 112.64770508 C235.07215861 106.09882558 239.7331318 99.59852629 244.4375 93.125 C248.9409242 86.92462359 253.32106705 80.65285332 257.625 74.3125 C261.93328449 67.9662878 266.34336733 61.72068317 270.90893555 55.55737305 C275.87994896 48.83908215 280.67702066 42.00089645 285.47949219 35.16162109 C286.99505922 33.00702403 288.51605859 30.85637664 290.0390625 28.70703125 C290.53946045 28.0003833 291.0398584 27.29373535 291.55541992 26.56567383 C292.55252821 25.15763999 293.55007998 23.74992009 294.5480957 22.3425293 C297.11441376 18.71224177 299.64476487 15.06209478 302.12890625 11.375 C302.88385376 10.25847046 302.88385376 10.25847046 303.65405273 9.11938477 C304.61660404 7.69161364 305.5733948 6.25993781 306.52368164 4.82397461 C307.63229025 3.18099619 308.80976623 1.58484533 310 0 C310.66 0 311.32 0 312 0 C312.10784321 17.69790086 312.11446843 35.32771488 311 53 C312.05960937 52.3503125 313.11921875 51.700625 314.2109375 51.03125 C315.59881775 50.18726877 316.98684629 49.34353136 318.375 48.5 C319.07367188 48.07074219 319.77234375 47.64148437 320.4921875 47.19921875 C325.7734375 44 325.7734375 44 328 44 C325.43102518 59.51070434 322.39769316 74.97292009 315 89 C316.7541123 87.92333797 318.50312587 86.83836661 320.25 85.75 C321.22453125 85.14671875 322.1990625 84.5434375 323.203125 83.921875 C326.03411763 82.1016746 326.03411763 82.1016746 328.234375 79.765625 C329.10835938 78.89164063 329.10835938 78.89164063 330 78 C330.66 78 331.32 78 332 78 C331.42663553 83.11414749 330.27935158 87.6830807 328.4375 92.5 C328.17428955 93.1906958 327.9110791 93.8813916 327.63989258 94.59301758 C322.72436647 107.10177167 315.89238241 118.16624359 308 129 C315.85593291 127.41209867 322.54150379 125.01501567 329.6015625 121.20703125 C332 120 332 120 334 120 C333.57540728 125.91397005 331.89369081 129.44856996 328.5 134.25 C328.04786133 134.90476318 327.59572266 135.55952637 327.12988281 136.23413086 C308.64511069 162.67744466 308.64511069 162.67744466 298 168 C298.61488281 168.06058594 299.22976563 168.12117187 299.86328125 168.18359375 C300.67152344 168.26738281 301.47976563 168.35117188 302.3125 168.4375 C303.11300781 168.51871094 303.91351563 168.59992188 304.73828125 168.68359375 C307 169 307 169 310 170 C304.95630444 176.32463411 299.89401276 182.44711982 294 188 C294.62648438 188.20496094 295.25296875 188.40992188 295.8984375 188.62109375 C297.12433594 189.02521484 297.12433594 189.02521484 298.375 189.4375 C299.18710937 189.70433594 299.99921875 189.97117188 300.8359375 190.24609375 C303 191 303 191 305 192 C301.18938059 200.26554645 295.09954906 205.17980453 287 209 C291.4024476 213.15825278 291.4024476 213.15825278 297 215 C297 215.99 297 216.98 297 218 C287.59579929 225.46712282 275.8381722 230.30373098 264 232 C264 232.99 264 233.98 264 235 C264.53625 235.268125 265.0725 235.53625 265.625 235.8125 C268.41666667 237.20833333 271.20833333 238.60416667 274 240 C271.30576958 243.47708228 267.60754194 244.3998735 263.5625 245.625 C262.85544922 245.84373779 262.14839844 246.06247559 261.41992188 246.2878418 C255.3248867 248.08296431 249.35872343 248.8675266 243 249 C243.11509661 250.41750563 243.24253658 251.83401169 243.375 253.25 C243.44460938 254.03890625 243.51421875 254.8278125 243.5859375 255.640625 C244.01507113 258.085877 244.78600638 259.84836903 246 262 C229.6232771 264.21955585 214.22426541 261.46789956 200.6875 251.6875 C199.1136626 250.47288369 197.54662743 249.24907987 196 248 C195.85304687 248.94359375 195.85304687 248.94359375 195.703125 249.90625 C193.95859763 259.8921653 190.45725802 265.93052648 183.51171875 273.3125 C181.75054363 276.44347798 181.77228979 278.48695755 182.41088867 281.99658203 C183.34560905 285.17532857 184.99580531 287.68380879 186.8125 290.4375 C190.91720974 297.04448298 192.59116755 303.42675635 194.125 310.98828125 C195.04390607 315.47752027 196.55626071 319.65132469 198.265625 323.8984375 C199 326 199 326 199 329 C197.86304688 329.60585938 196.72609375 330.21171875 195.5546875 330.8359375 C172.05887683 342.70742078 172.05887683 342.70742078 157 363 C156.34 363 155.68 363 155 363 C154.67 362.01 154.34 361.02 154 360 C147.41160894 345.0563312 126.56327835 336.37870859 113 329 C113.74805079 324.68624047 115.02791535 320.59291366 116.375 316.4375 C117.94416385 311.56676211 119.31556292 306.76246169 120.375 301.75 C121.69296427 296.11033895 124.27089615 291.77258549 127.4765625 286.984375 C129.35654005 283.30154719 130.4000126 280.15972183 130 276 C128.48066743 273.4398648 127.20242981 271.65296042 125.25 269.5 C119.49923253 262.61970604 116.92941629 256.92239642 116 248 C115.31035156 248.53109375 114.62070313 249.0621875 113.91015625 249.609375 C103.04358921 257.77793294 93.45023368 261.74676417 79.875 262.6875 C78.85297485 262.76037231 78.85297485 262.76037231 77.81030273 262.8347168 C73.7163801 263.06844166 70.01330244 262.83141624 66 262 C66.31710938 261.43796875 66.63421875 260.8759375 66.9609375 260.296875 C68.06874525 257.84803683 68.38975399 255.91612145 68.625 253.25 C68.69976562 252.45078125 68.77453125 251.6515625 68.8515625 250.828125 C68.92503906 249.92320312 68.92503906 249.92320312 69 249 C68.319375 248.98582031 67.63875 248.97164062 66.9375 248.95703125 C60.46583824 248.63861172 54.60067828 247.53168061 48.4375 245.625 C47.74720703 245.41593018 47.05691406 245.20686035 46.34570312 244.99145508 C42.89625877 243.87362698 40.2606274 242.91748895 38 240 C39.28813342 239.16121545 40.58063256 238.32913217 41.875 237.5 C42.59429687 237.0359375 43.31359375 236.571875 44.0546875 236.09375 C46 235 46 235 48 235 C48 234.01 48 233.02 48 232 C46.83597656 231.79697266 46.83597656 231.79697266 45.6484375 231.58984375 C34.46268397 229.36070194 24.14513631 224.93816526 15 218 C15 217.01 15 216.02 15 215 C16.72526042 214.31640625 18.45052083 213.6328125 20.17578125 212.94921875 C22.18943741 211.90142764 23.47938708 210.67033481 25 209 C24.05640625 208.50693359 24.05640625 208.50693359 23.09375 208.00390625 C16.50536849 204.34259183 11.41371499 200.1644064 7 194 C7 193.34 7 192.68 7 192 C10.3 191.01 13.6 190.02 17 189 C17.22975753 186.81646023 17.22975753 186.81646023 15.2421875 185.15234375 C14.07042969 184.05599609 14.07042969 184.05599609 12.875 182.9375 C8.4948474 178.67498183 5.14756708 174.22125833 2 169 C3.953125 169.03255208 5.90625 169.06510417 7.859375 169.09765625 C10.03292403 168.99849799 11.91306537 168.59693851 14 168 C13.55011719 167.62230469 13.10023437 167.24460938 12.63671875 166.85546875 C-1.0518759 155.14198195 -15.0571484 141.02023958 -22 124 C-22 122.68 -22 121.36 -22 120 C-19.38102975 121.03229484 -16.78403285 122.09410859 -14.203125 123.21875 C-8.15791939 125.84153762 -2.48321736 127.81141015 4 129 C3.3709375 128.09121094 2.741875 127.18242188 2.09375 126.24609375 C-20 93.97325155 -20 93.97325155 -20 78 C-15.90247817 79.86250992 -12.70006269 82.53008632 -9.21875 85.34375 C-7.2027264 86.84866902 -5.28350697 87.96204229 -3 89 C-3.37511719 88.20980469 -3.75023438 87.41960937 -4.13671875 86.60546875 C-10.29276636 73.03735375 -14.02481131 58.76969451 -16 44 C-11.53817564 45.31074365 -8.00381243 47.07066011 -4.125 49.625 C-3.15820312 50.25664063 -2.19140625 50.88828125 -1.1953125 51.5390625 C-0.47085937 52.02117188 0.25359375 52.50328125 1 53 C0.9278125 51.77152344 0.855625 50.54304688 0.78125 49.27734375 C-0.1087846 32.84422718 -0.1045682 16.45099044 0 0 Z " fill="#37CE78" transform="translate(22,0)"/>
</svg>
